<svg xmlns="http://www.w3.org/2000/svg" xmlns:xlink="http://www.w3.org/1999/xlink" xmlns:lucid="lucid" width="1220" height="1320"><g transform="translate(-20 -20)" lucid:page-tab-id="0_0"><path d="M240 146c0-3.3 2.7-6 6-6h388c3.3 0 6 2.7 6 6v228c0 3.3-2.7 6-6 6H246c-3.3 0-6-2.7-6-6z" stroke="#5e5e5e" stroke-width="3" fill="#ffeca9"/><use xlink:href="#a" transform="matrix(1,0,0,1,245,145) translate(133.42592592592592 17.77777777777778)"/><path d="M80 146c0-3.3 2.7-6 6-6h48c3.3 0 6 2.7 6 6v228c0 3.3-2.7 6-6 6H86c-3.3 0-6-2.7-6-6z" stroke="#5e5e5e" stroke-width="3" fill="#fff"/><use xlink:href="#b" transform="matrix(1,0,0,1,85,145) translate(2.691358024691361 118.40277777777777)"/><path d="M330 286c0-3.3 2.7-6 6-6h68c3.3 0 6 2.7 6 6v48c0 3.3-2.7 6-6 6h-68c-3.3 0-6-2.7-6-6z" stroke="#5e5e5e" stroke-width="3" fill="#fff"/><use xlink:href="#c" transform="matrix(1,0,0,1,335,285) translate(20.067901234567902 30.27777777777778)"/><path d="M485 286c0-3.3 2.7-6 6-6h68c3.3 0 6 2.7 6 6v48c0 3.3-2.7 6-6 6h-68c-3.3 0-6-2.7-6-6z" stroke="#5e5e5e" stroke-width="3" fill="#fff"/><use xlink:href="#d" transform="matrix(1,0,0,1,490,285.00000000000006) translate(0.9938271604938294 30.27777777777778)"/><path d="M820 146c0-3.3 2.7-6 6-6h388c3.3 0 6 2.7 6 6v228c0 3.3-2.7 6-6 6H826c-3.3 0-6-2.7-6-6z" stroke="#5e5e5e" stroke-width="3" fill="#c1e4f7"/><use xlink:href="#e" transform="matrix(1,0,0,1,825,145) translate(165.40123456790124 17.77777777777778)"/><path d="M840 166c0-3.3 2.7-6 6-6h68c3.3 0 6 2.7 6 6v48c0 3.3-2.7 6-6 6h-68c-3.3 0-6-2.7-6-6z" stroke="#5e5e5e" stroke-width="3" fill="#fff"/><use xlink:href="#c" transform="matrix(1,0,0,1,845,165) translate(20.067901234567902 30.27777777777778)"/><path d="M704.8 174.23h-62.3v-2h62.3zm95.2 0h-67.95v-2H800z" fill="#5e5e5e"/><path d="M642.53 174.23h-1.03v-2h1.03zM815.26 173.23L801 177.86v-9.27z" fill="#5e5e5e"/><path d="M818.5 173.23l-18.5 6v-12zM802 176.5l10.03-3.27-10.03-3.26z" fill="#5e5e5e"/><use xlink:href="#f" transform="matrix(1,0,0,1,704.7888557317605,162.5622250753938) translate(0 14.222222222222223)"/><path d="M710.3 355.9h-67.8v-2h67.8zm107.2 0h-67.8v-2h67.8z" fill="#5e5e5e"/><path d="M642.53 355.9h-1.03v-2h1.03zM818.5 355.9h-1.03v-2h1.03z" fill="#5e5e5e"/><use xlink:href="#g" transform="matrix(1,0,0,1,710.2962962962963,344.24388327985884) translate(0 14.222222222222223)"/><path d="M707.1 331.58H585v-2h122.1zm92.9 0h-50.53v-2H800zM584 335.22l-14.26-4.64 14.26-4.63z" fill="#5e5e5e"/><path d="M585 336.6l-18.5-6.02 18.5-6zm-12.03-6.02l10.03 3.26v-6.5zM815.26 330.58L801 335.22v-9.27z" fill="#5e5e5e"/><path d="M818.5 330.58L800 336.6v-12.03zm-16.5 3.26l10.03-3.26-10.03-3.25z" fill="#5e5e5e"/><use xlink:href="#h" transform="matrix(1,0,0,1,707.1021429110423,319.9183056123154) translate(0 14.222222222222223)"/><path d="M709.87 311.82H567.5v-2h142.37zm90.13 0h-54.68v-2H800z" fill="#5e5e5e"/><path d="M567.53 311.82h-1.03v-2h1.03zM815.26 310.82L801 315.46v-9.27z" fill="#5e5e5e"/><path d="M818.5 310.82l-18.5 6v-12zm-16.5 3.26l10.03-3.26-10.03-3.26z" fill="#5e5e5e"/><use xlink:href="#i" transform="matrix(1,0,0,1,709.8650854598155,300.15377375743645) translate(0 14.222222222222223)"/><path d="M708.78 292.82H585v-2h123.78zm108.72 0h-75.24v-2h75.24zM584 296.45l-14.26-4.63 14.26-4.64z" fill="#5e5e5e"/><path d="M585 297.83l-18.5-6 18.5-6.03zm-12.03-6l10.03 3.24v-6.5zM818.5 292.82h-1.03v-2h1.03z" fill="#5e5e5e"/><use xlink:href="#j" transform="matrix(1,0,0,1,708.7751970567525,281.14941620466806) translate(0 14.222222222222223)"/><path d="M980 236c0-3.3 2.7-6 6-6h68c3.3 0 6 2.7 6 6v48c0 3.3-2.7 6-6 6h-68c-3.3 0-6-2.7-6-6z" stroke="#5e5e5e" stroke-width="3" fill="#fff"/><use xlink:href="#k" transform="matrix(1,0,0,1,985,235) translate(10.283950617283953 30.27777777777778)"/><path d="M606 340c-3.3 0-6-2.7-6-6v-48c0-3.3 2.7-6 6-6h18c3.3 0 6 2.7 6 6v48c0 3.3-2.7 6-6 6z" stroke="#5e5e5e" stroke-width="3" fill="#fff"/><use xlink:href="#l" transform="matrix(6.123233995736766e-17,-1,1,6.123233995736766e-17,605,335) translate(-7.654320987654323 17.77777777777778)"/><path d="M168.64 174.23H142.5v-2h26.14zm51.36 0h-8.64v-2H220z" fill="#5e5e5e"/><path d="M142.53 174.23h-1.03v-2h1.03zM235.26 173.23L221 177.86v-9.27z" fill="#5e5e5e"/><path d="M238.5 173.23l-18.5 6v-12zM222 176.5l10.03-3.27-10.03-3.26z" fill="#5e5e5e"/><use xlink:href="#m" transform="matrix(1,0,0,1,168.64197530864197,162.5622250753938) translate(0 14.222222222222223)"/><path d="M451 340c-3.3 0-6-2.7-6-6v-48c0-3.3 2.7-6 6-6h18c3.3 0 6 2.7 6 6v48c0 3.3-2.7 6-6 6z" stroke="#5e5e5e" stroke-width="3" fill="#fff"/><use xlink:href="#l" transform="matrix(6.123233995736766e-17,-1,1,6.123233995736766e-17,450,335) translate(-7.654320987654323 17.77777777777778)"/><path d="M412.5 310H425" stroke="#5e5e5e" stroke-width="2" fill="none"/><path d="M412.53 311h-1.03v-2h1.03z" fill="#5e5e5e"/><path d="M440.26 310L426 314.64v-9.28z" stroke="#5e5e5e" stroke-width="2" fill="#5e5e5e"/><path d="M262.52 173.74h340.5M262.55 173.74h-1.03" stroke="#5e5e5e" stroke-width="2" fill="none"/><path d="M618.28 173.74l-14.26 4.63v-9.27z" stroke="#5e5e5e" stroke-width="2" fill="#5e5e5e"/><path d="M170.3 355.9h-27.8v-2h27.8zm67.2 0h-27.8v-2h27.8z" fill="#5e5e5e"/><path d="M142.53 355.9h-1.03v-2h1.03zM238.5 355.9h-1.03v-2h1.03z" fill="#5e5e5e"/><use xlink:href="#g" transform="matrix(1,0,0,1,170.2962962962963,344.2438832798589) translate(0 14.222222222222223)"/><path d="M261 356.15h358M261.03 356.15H260M618.97 356.15H620M370 342.5v12.65" stroke="#5e5e5e" stroke-width="2" fill="none"/><path d="M371 342.53h-2v-1.03h2z" fill="#5e5e5e"/><path d="M370 355.12v1.03M525 342.5v12.65" stroke="#5e5e5e" stroke-width="2" fill="none"/><path d="M526 342.53h-2v-1.03h2z" fill="#5e5e5e"/><path d="M525 355.12v1.03M370 277.5v-73.24c0-3.3 2.7-6 6-6h225.7" stroke="#5e5e5e" stroke-width="2" fill="none"/><path d="M371 278.5h-2v-1.03h2z" fill="#5e5e5e"/><path d="M616.98 198.26l-14.27 4.64v-9.27z" stroke="#5e5e5e" stroke-width="2" fill="#5e5e5e"/><path d="M240 557.42c0-3.32 2.7-6 6-6h388c3.3 0 6 2.68 6 6v228c0 3.3-2.7 6-6 6H246c-3.3 0-6-2.7-6-6z" stroke="#5e5e5e" stroke-width="3" fill="#c7e8ac"/><use xlink:href="#n" transform="matrix(1,0,0,1,245,556.4173228346456) translate(163.58024691358025 17.77777777777778)"/><path d="M80 557.42c0-3.32 2.7-6 6-6h48c3.3 0 6 2.68 6 6v228c0 3.3-2.7 6-6 6H86c-3.3 0-6-2.7-6-6z" fill="#fff"/><path d="M97.2 551.42h9.6m6.4 0h9.6m6.4 0h4.8l3.03.82 2.15 2.15.82 3.02v4.56m0 6.08v9.12m0 6.08v9.12m0 6.08v9.12m0 6.08v9.12m0 6.08v9.12m0 6.08v9.12m0 6.08v9.12m0 6.08v9.12m0 6.08v9.12m0 6.08v9.12m0 6.08v9.12m0 6.08v9.12m0 6.08v9.12m0 6.08v9.12m0 6.08v4.56l-.82 3.03-2.15 2.15-3.03.82h-4.8m-6.4 0h-9.6m-6.4 0h-9.6m-6.4 0H86l-3.03-.82-2.15-2.15-.82-3.03v-4.56m0-6.08v-9.12m0-6.08v-9.12m0-6.08v-9.12m0-6.08v-9.12m0-6.08v-9.12m0-6.08v-9.12m0-6.08v-9.12m0-6.08v-9.12m0-6.08v-9.12m0-6.08v-9.12m0-6.08v-9.12m0-6.08v-9.12m0-6.08v-9.12m0-6.08v-9.12m0-6.08v-4.56l.82-3.03 2.15-2.16 3.03-.82h4.8" stroke="#5e5e5e" stroke-width="3" fill="none"/><use xlink:href="#b" transform="matrix(1,0,0,1,85,556.4173228346456) translate(2.691358024691361 118.40277777777777)"/><path d="M820 557.42c0-3.32 2.7-6 6-6h388c3.3 0 6 2.68 6 6v228c0 3.3-2.7 6-6 6H826c-3.3 0-6-2.7-6-6z" stroke="#5e5e5e" stroke-width="3" fill="#c1e4f7"/><use xlink:href="#e" transform="matrix(1,0,0,1,825,556.4173228346456) translate(165.40123456790124 17.77777777777778)"/><path d="M840 577.42c0-3.32 2.7-6 6-6h68c3.3 0 6 2.68 6 6v48c0 3.3-2.7 6-6 6h-68c-3.3 0-6-2.7-6-6z" stroke="#5e5e5e" stroke-width="3" fill="#fff"/><use xlink:href="#c" transform="matrix(1,0,0,1,845,576.4173228346456) translate(20.067901234567902 30.27777777777778)"/><path d="M710.3 767.33h-67.8v-2h67.8zm107.2 0h-67.8v-2h67.8z" fill="#5e5e5e"/><path d="M642.53 767.33h-1.03v-2h1.03zM818.5 767.33h-1.03v-2h1.03z" fill="#5e5e5e"/><use xlink:href="#g" transform="matrix(1,0,0,1,710.2962962962963,755.6612061145045) translate(0 14.222222222222223)"/><path d="M170.3 767.33h-27.8v-2h27.8zm67.2 0h-27.8v-2h27.8z" fill="#5e5e5e"/><path d="M142.53 767.33h-1.03v-2h1.03zM238.5 767.33h-1.03v-2h1.03z" fill="#5e5e5e"/><use xlink:href="#g" transform="matrix(1,0,0,1,170.2962962962963,755.6612061145046) translate(0 14.222222222222223)"/><path d="M261 767.56h358M261.03 767.56H260M618.97 767.56H620" stroke="#5e5e5e" stroke-width="2" fill="none"/><path d="M485 577.42c0-3.32 2.7-6 6-6h98c3.3 0 6 2.68 6 6v48c0 3.3-2.7 6-6 6h-98c-3.3 0-6-2.7-6-6z" stroke="#5e5e5e" stroke-width="3" fill="#fff"/><use xlink:href="#o" transform="matrix(1,0,0,1,490,576.4173228346456) translate(15.345679012345677 30.27777777777778)"/><path d="M280 577.37c0-3.3 2.7-6 6-6h108c3.3 0 6 2.7 6 6v48c0 3.3-2.7 6-6 6H286c-3.3 0-6-2.7-6-6z" stroke="#5e5e5e" stroke-width="3" fill="#fff"/><use xlink:href="#p" transform="matrix(1,0,0,1,285,576.3711425023664) translate(15.469135802469133 30.27777777777778)"/><path d="M163.7 598.58h-21.2v-2h21.2zm96.3 0h-53.57v-2H260z" fill="#5e5e5e"/><path d="M142.53 598.58h-1.03v-2h1.03zM275.26 597.58L261 602.22v-9.27z" fill="#5e5e5e"/><path d="M278.5 597.58L260 603.6v-12.03zm-16.5 3.26l10.03-3.26-10.03-3.25z" fill="#5e5e5e"/><use xlink:href="#m" transform="matrix(1,0,0,1,163.709458518409,586.9176885888105) translate(0 14.222222222222223)"/><path d="M721.52 602.42H597.5v-2h124.02zm78.48 0h-51.22v-2H800z" fill="#5e5e5e"/><path d="M597.53 602.42h-1.03v-2h1.03zM815.26 601.42L801 606.05v-9.27z" fill="#5e5e5e"/><path d="M818.5 601.42l-18.5 6v-12zm-16.5 3.26l10.03-3.26-10.03-3.26z" fill="#5e5e5e"/><use xlink:href="#f" transform="matrix(1,0,0,1,721.521718016973,590.750656167979) translate(0 14.222222222222223)"/><path d="M820 286c0-3.3 2.7-6 6-6h28c3.3 0 6 2.7 6 6v8c0 3.3-2.7 6-6 6h-28c-3.3 0-6-2.7-6-6z" stroke="#000" stroke-opacity="0" stroke-width="3" fill="#fff" fill-opacity="0"/><use xlink:href="#q" transform="matrix(1,0,0,1,825,285.00000000000006) translate(4.845679012345684 8.888888888888884)"/><path d="M820 306c0-3.3 2.7-6 6-6h28c3.3 0 6 2.7 6 6v8c0 3.3-2.7 6-6 6h-28c-3.3 0-6-2.7-6-6z" stroke="#000" stroke-opacity="0" stroke-width="3" fill="#fff" fill-opacity="0"/><use xlink:href="#r" transform="matrix(1,0,0,1,825,305) translate(4.228395061728401 8.888888888888884)"/><path d="M820 326c0-3.3 2.7-6 6-6h28c3.3 0 6 2.7 6 6v8c0 3.3-2.7 6-6 6h-28c-3.3 0-6-2.7-6-6z" stroke="#000" stroke-opacity="0" stroke-width="3" fill="#fff" fill-opacity="0"/><use xlink:href="#s" transform="matrix(1,0,0,1,825,325) translate(1.7592592592592666 8.888888888888884)"/><path d="M820 707.42c0-3.32 2.7-6 6-6h28c3.3 0 6 2.68 6 6v8c0 3.3-2.7 6-6 6h-28c-3.3 0-6-2.7-6-6z" stroke="#000" stroke-opacity="0" stroke-width="3" fill="#fff" fill-opacity="0"/><use xlink:href="#q" transform="matrix(1,0,0,1,825,706.4173228346456) translate(4.845679012345684 8.888888888888884)"/><path d="M820 727.42c0-3.32 2.7-6 6-6h28c3.3 0 6 2.68 6 6v8c0 3.3-2.7 6-6 6h-28c-3.3 0-6-2.7-6-6z" stroke="#000" stroke-opacity="0" stroke-width="3" fill="#fff" fill-opacity="0"/><use xlink:href="#r" transform="matrix(1,0,0,1,825,726.4173228346456) translate(4.228395061728401 8.888888888888884)"/><path d="M820 747.42c0-3.32 2.7-6 6-6h28c3.3 0 6 2.68 6 6v8c0 3.3-2.7 6-6 6h-28c-3.3 0-6-2.7-6-6z" stroke="#000" stroke-opacity="0" stroke-width="3" fill="#fff" fill-opacity="0"/><use xlink:href="#s" transform="matrix(1,0,0,1,825,746.4173228346456) translate(1.7592592592592666 8.888888888888884)"/><path d="M820 346c0-3.3 2.7-6 6-6h28c3.3 0 6 2.7 6 6v8c0 3.3-2.7 6-6 6h-28c-3.3 0-6-2.7-6-6z" stroke="#000" stroke-opacity="0" stroke-width="3" fill="#fff" fill-opacity="0"/><use xlink:href="#t" transform="matrix(1,0,0,1,825,345) translate(2.6851851851851922 8.888888888888884)"/><path d="M820 767.42c0-3.32 2.7-6 6-6h28c3.3 0 6 2.68 6 6v8c0 3.3-2.7 6-6 6h-28c-3.3 0-6-2.7-6-6z" stroke="#000" stroke-opacity="0" stroke-width="3" fill="#fff" fill-opacity="0"/><use xlink:href="#t" transform="matrix(1,0,0,1,825,766.4173228346455) translate(2.6851851851851922 8.888888888888884)"/><path d="M340 633.87v132.7" stroke="#5e5e5e" stroke-width="2" fill="none"/><path d="M341 633.9h-2v-1.03h2z" fill="#5e5e5e"/><path d="M340 766.54v1.02M540 633.92v132.64" stroke="#5e5e5e" stroke-width="2" fill="none"/><path d="M541 633.94h-2v-1.02h2z" fill="#5e5e5e"/><path d="M540 766.54v1.02" stroke="#5e5e5e" stroke-width="2" fill="none"/><path d="M240 1026c0-3.3 2.7-6 6-6h388c3.3 0 6 2.7 6 6v228c0 3.3-2.7 6-6 6H246c-3.3 0-6-2.7-6-6z" stroke="#333" stroke-width="3" fill="#ffeca9"/><use xlink:href="#a" transform="matrix(1,0,0,1,245,1025) translate(133.42592592592592 17.77777777777778)"/><path d="M80 1026c0-3.3 2.7-6 6-6h48c3.3 0 6 2.7 6 6v228c0 3.3-2.7 6-6 6H86c-3.3 0-6-2.7-6-6z" stroke="#5e5e5e" stroke-width="3" fill="#fff"/><use xlink:href="#b" transform="matrix(1,0,0,1,85,1025) translate(2.691358024691361 118.40277777777777)"/><path d="M330 1166c0-3.3 2.7-6 6-6h68c3.3 0 6 2.7 6 6v48c0 3.3-2.7 6-6 6h-68c-3.3 0-6-2.7-6-6z" stroke="#5e5e5e" stroke-width="3" fill="#fff"/><use xlink:href="#c" transform="matrix(1,0,0,1,335,1165) translate(20.067901234567902 30.27777777777778)"/><path d="M485 1166c0-3.3 2.7-6 6-6h68c3.3 0 6 2.7 6 6v48c0 3.3-2.7 6-6 6h-68c-3.3 0-6-2.7-6-6z" stroke="#5e5e5e" stroke-width="3" fill="#fff"/><use xlink:href="#d" transform="matrix(1,0,0,1,490,1165) translate(0.9938271604938294 30.27777777777778)"/><path d="M820 1026c0-3.3 2.7-6 6-6h388c3.3 0 6 2.7 6 6v228c0 3.3-2.7 6-6 6H826c-3.3 0-6-2.7-6-6z" stroke="#5e5e5e" stroke-width="3" fill="#c1e4f7"/><use xlink:href="#u" transform="matrix(1,0,0,1,825,1025) translate(133.7962962962963 17.77777777777778)"/><use xlink:href="#v" transform="matrix(1,0,0,1,825,1025) translate(194.5987654320988 17.77777777777778)"/><path d="M920 1066c0-3.3 2.7-6 6-6h68c3.3 0 6 2.7 6 6v48c0 3.3-2.7 6-6 6h-68c-3.3 0-6-2.7-6-6z" stroke="#5e5e5e" stroke-width="3" fill="#fff"/><use xlink:href="#c" transform="matrix(1,0,0,1,925,1065) translate(20.067901234567902 30.27777777777778)"/><path d="M645.42 1054.23h-2.92v-2h2.92zm9.72 0h-5.83v-2h5.84zm9.72 0h-5.83v-2h5.83zm9.72 0h-5.83v-2h5.83zm9.73 0h-5.83v-2h5.84zm9.73 0h-5.84v-2h5.83zm9.72 0h-5.83v-2h5.83zm39.25 0h-6v-2h6zm10 0h-6v-2h6zm10 0h-6v-2h6zm10 0h-6v-2h6zm10 0h-6v-2h6zm10 0h-6v-2h6zm7 0h-3v-2h3zm-67 0h-.95v-2h.95z" fill="#5e5e5e"/><path d="M642.53 1054.23h-1.03v-2h1.03zM815.26 1053.23l-14.26 4.63v-9.27z" fill="#5e5e5e"/><path d="M818.5 1053.23l-18.5 6v-12zm-16.5 3.26l10.03-3.27-10.03-3.26z" fill="#5e5e5e"/><use xlink:href="#f" transform="matrix(1,0,0,1,704.7888557317606,1042.5622250753936) translate(0 14.222222222222223)"/><path d="M645.42 1235.9h-2.92v-2h2.92zm9.72 0h-5.83v-2h5.84zm9.72 0h-5.83v-2h5.83zm9.72 0h-5.83v-2h5.83zm9.73 0h-5.83v-2h5.84zm9.73 0h-5.84v-2h5.83zm9.72 0h-5.83v-2h5.83zm6.55 0h-2.66v-2h2.66zm51.78 0h-5.83v-2h5.83zm9.73 0h-5.83v-2h5.84zm9.73 0h-5.84v-2h5.83zm9.72 0h-5.83v-2h5.83zm9.72 0h-5.83v-2h5.83zm9.72 0h-5.84v-2h5.83zm6.8 0h-2.92v-2h2.92zm-65.14 0h-2.66v-2h2.66z" fill="#5e5e5e"/><path d="M642.53 1235.9h-1.03v-2h1.03zM818.5 1235.9h-1.03v-2h1.03z" fill="#5e5e5e"/><use xlink:href="#g" transform="matrix(1,0,0,1,710.2962962962963,1224.2438832798587) translate(0 14.222222222222223)"/><path d="M587.93 1211.58H585v-2h2.93zm9.78 0h-5.86v-2h5.87zm9.78 0h-5.86v-2h5.86zm9.77 0h-5.86v-2h5.85zm9.77 0h-5.86v-2h5.86zm9.78 0h-5.87v-2h5.87zm9.77 0h-5.86v-2h5.87zm9.77 0h-5.86v-2h5.86zm9.77 0h-5.85v-2h5.86zm9.8 0H670v-2h5.87zm9.76 0h-5.86v-2h5.86zm9.77 0h-5.86v-2h5.86zm9.77 0h-5.86v-2h5.86zm58.64 0h-5.86v-2h5.86zm9.77 0h-5.85v-2h5.86zm9.78 0h-5.86v-2h5.86zm9.78 0h-5.87v-2h5.86zm6.84 0h-2.93v-2H800zm-45.93 0h-4.6v-2h4.6zM584 1215.22l-14.26-4.64 14.26-4.63z" fill="#5e5e5e"/><path d="M585 1216.6l-18.5-6.02 18.5-6zm-12.03-6.02l10.03 3.26v-6.5zM815.26 1210.58l-14.26 4.64v-9.27z" fill="#5e5e5e"/><path d="M818.5 1210.58l-18.5 6.02v-12.03zm-16.5 3.26l10.03-3.26-10.03-3.25z" fill="#5e5e5e"/><use xlink:href="#h" transform="matrix(1,0,0,1,707.1011429110424,1199.9183056123154) translate(0 14.222222222222223)"/><path d="M975.43 1186c0-3.3 2.7-6 6-6h68c3.32 0 6 2.7 6 6v48c0 3.3-2.68 6-6 6h-68c-3.3 0-6-2.7-6-6z" stroke="#5e5e5e" stroke-width="3" fill="#fff"/><use xlink:href="#k" transform="matrix(1,0,0,1,980.4330708661416,1185) translate(10.283950617283953 30.27777777777778)"/><path d="M168.64 1054.23H142.5v-2h26.14zm51.36 0h-8.64v-2H220z" fill="#5e5e5e"/><path d="M142.53 1054.23h-1.03v-2h1.03zM235.26 1053.23l-14.26 4.63v-9.27z" fill="#5e5e5e"/><path d="M238.5 1053.23l-18.5 6v-12zm-16.5 3.26l10.03-3.27-10.03-3.26z" fill="#5e5e5e"/><use xlink:href="#m" transform="matrix(1,0,0,1,168.64197530864197,1042.5622250753936) translate(0 14.222222222222223)"/><path d="M451 1220c-3.3 0-6-2.7-6-6v-48c0-3.3 2.7-6 6-6h18c3.3 0 6 2.7 6 6v48c0 3.3-2.7 6-6 6z" stroke="#5e5e5e" stroke-width="3" fill="#fff"/><use xlink:href="#l" transform="matrix(6.123233995736766e-17,-1,1,6.123233995736766e-17,450,1215) translate(-7.654320987654323 17.77777777777778)"/><path d="M412.5 1190H425" stroke="#5e5e5e" stroke-width="2" fill="none"/><path d="M412.53 1191h-1.03v-2h1.03z" fill="#5e5e5e"/><path d="M440.26 1190l-14.26 4.64v-9.28z" stroke="#5e5e5e" stroke-width="2" fill="#5e5e5e"/><path d="M262.52 1053.74h340.5M262.55 1053.74h-1.03" stroke="#5e5e5e" stroke-width="2" fill="none"/><path d="M618.28 1053.74l-14.26 4.63v-9.27z" stroke="#5e5e5e" stroke-width="2" fill="#5e5e5e"/><path d="M170.3 1235.9h-27.8v-2h27.8zm67.2 0h-27.8v-2h27.8z" fill="#5e5e5e"/><path d="M142.53 1235.9h-1.03v-2h1.03zM238.5 1235.9h-1.03v-2h1.03z" fill="#5e5e5e"/><use xlink:href="#g" transform="matrix(1,0,0,1,170.2962962962963,1224.243883279859) translate(0 14.222222222222223)"/><path d="M261 1236.15h358M261.03 1236.15H260M618.97 1236.15H620M370 1222.5v12.65" stroke="#5e5e5e" stroke-width="2" fill="none"/><path d="M371 1222.53h-2v-1.03h2z" fill="#5e5e5e"/><path d="M370 1235.12v1.03M525 1222.5v12.65" stroke="#5e5e5e" stroke-width="2" fill="none"/><path d="M526 1222.53h-2v-1.03h2z" fill="#5e5e5e"/><path d="M525 1235.12v1.03M370 1157.5v-73.24c0-3.3 2.7-6 6-6h225.7" stroke="#5e5e5e" stroke-width="2" fill="none"/><path d="M371 1158.5h-2v-1.03h2z" fill="#5e5e5e"/><path d="M616.98 1078.26l-14.27 4.64v-9.27z" stroke="#5e5e5e" stroke-width="2" fill="#5e5e5e"/><path d="M820 1166c0-3.3 2.7-6 6-6h28c3.3 0 6 2.7 6 6v8c0 3.3-2.7 6-6 6h-28c-3.3 0-6-2.7-6-6z" stroke="#000" stroke-opacity="0" stroke-width="3" fill="#fff" fill-opacity="0"/><use xlink:href="#q" transform="matrix(1,0,0,1,825,1165) translate(4.845679012345684 8.888888888888884)"/><path d="M820 1186c0-3.3 2.7-6 6-6h28c3.3 0 6 2.7 6 6v8c0 3.3-2.7 6-6 6h-28c-3.3 0-6-2.7-6-6z" stroke="#000" stroke-opacity="0" stroke-width="3" fill="#fff" fill-opacity="0"/><use xlink:href="#r" transform="matrix(1,0,0,1,825,1185) translate(4.228395061728401 8.888888888888884)"/><path d="M820 1206c0-3.3 2.7-6 6-6h28c3.3 0 6 2.7 6 6v8c0 3.3-2.7 6-6 6h-28c-3.3 0-6-2.7-6-6z" stroke="#000" stroke-opacity="0" stroke-width="3" fill="#fff" fill-opacity="0"/><use xlink:href="#s" transform="matrix(1,0,0,1,825,1205) translate(1.7592592592592666 8.888888888888884)"/><path d="M820 1226c0-3.3 2.7-6 6-6h28c3.3 0 6 2.7 6 6v8c0 3.3-2.7 6-6 6h-28c-3.3 0-6-2.7-6-6z" stroke="#000" stroke-opacity="0" stroke-width="3" fill="#fff" fill-opacity="0"/><use xlink:href="#t" transform="matrix(1,0,0,1,825,1225) translate(2.6851851851851922 8.888888888888884)"/><path d="M840 926c0-3.3 2.7-6 6-6h68c3.3 0 6 2.7 6 6v48c0 3.3-2.7 6-6 6h-68c-3.3 0-6-2.7-6-6z" stroke="#5e5e5e" stroke-width="3" fill="#fff"/><use xlink:href="#w" transform="matrix(1,0,0,1,845,925) translate(11.117283950617285 30.27777777777778)"/><path d="M40 46c0-3.3 2.7-6 6-6h228c3.3 0 6 2.7 6 6v48c0 3.3-2.7 6-6 6H46c-3.3 0-6-2.7-6-6z" stroke="#000" stroke-opacity="0" stroke-width="3" fill="#fff" fill-opacity="0"/><use xlink:href="#x" transform="matrix(1,0,0,1,45,45) translate(0 30.27777777777778)"/><use xlink:href="#y" transform="matrix(1,0,0,1,45,45) translate(113.39506172839506 30.27777777777778)"/><path d="M40 466c0-3.3 2.7-6 6-6h228c3.3 0 6 2.7 6 6v48c0 3.3-2.7 6-6 6H46c-3.3 0-6-2.7-6-6z" stroke="#000" stroke-opacity="0" stroke-width="3" fill="#fff" fill-opacity="0"/><use xlink:href="#z" transform="matrix(1,0,0,1,45,465) translate(0 30.27777777777778)"/><use xlink:href="#A" transform="matrix(1,0,0,1,45,465) translate(82.53086419753086 30.27777777777778)"/><path d="M40 926c0-3.3 2.7-6 6-6h228c3.3 0 6 2.7 6 6v48c0 3.3-2.7 6-6 6H46c-3.3 0-6-2.7-6-6z" stroke="#000" stroke-opacity="0" stroke-width="3" fill="#fff" fill-opacity="0"/><use xlink:href="#B" transform="matrix(1,0,0,1,45,925) translate(0 30.27777777777778)"/><use xlink:href="#C" transform="matrix(1,0,0,1,45,925) translate(59.135802469135804 30.27777777777778)"/><use xlink:href="#D" transform="matrix(1,0,0,1,45,925) translate(71.48148148148148 30.27777777777778)"/><path d="M402.5 601.37h39.98s.02 0 .02.02c0 0 0 .02.02.02H465" stroke="#5e5e5e" stroke-width="2" fill="none"/><path d="M402.53 602.37h-1.03v-2h1.03z" fill="#5e5e5e"/><path d="M480.26 601.42L466 606.05v-9.27z" stroke="#5e5e5e" stroke-width="2" fill="#5e5e5e"/><path d="M975.43 721.46c0-3.32 2.7-6 6-6h68c3.32 0 6 2.68 6 6v48c0 3.3-2.68 6-6 6h-68c-3.3 0-6-2.7-6-6z" stroke="#5e5e5e" stroke-width="3" fill="#fff"/><use xlink:href="#k" transform="matrix(1,0,0,1,980.4330708661582,720.4560296374839) translate(10.283950617283953 30.27777777777778)"/><path d="M840 1066c0-3.3 2.7-6 6-6h68c3.3 0 6 2.7 6 6v48c0 3.3-2.7 6-6 6h-68c-3.3 0-6-2.7-6-6z" stroke="#5e5e5e" stroke-width="3" fill="#fff"/><use xlink:href="#E" transform="matrix(1,0,0,1,845,1065) translate(-5.117283950617292 29.444444444444443)"/><path d="M880 982.5v57.5" stroke="#5e5e5e" stroke-width="2" fill="none"/><path d="M881 982.53h-2v-1.03h2z" fill="#5e5e5e"/><path d="M880 1055.26l-4.64-14.26h9.28z" stroke="#5e5e5e" stroke-width="2" fill="#5e5e5e"/><path d="M709.87 311.82H567.5v-2h142.37zm90.13 0h-54.68v-2H800z" fill="#5e5e5e"/><path d="M567.53 311.82h-1.03v-2h1.03zM815.26 310.82L801 315.46v-9.27z" fill="#5e5e5e"/><path d="M818.5 310.82l-18.5 6v-12zm-16.5 3.26l10.03-3.26-10.03-3.26z" fill="#5e5e5e"/><use xlink:href="#i" transform="matrix(1,0,0,1,709.8650854598155,300.15377375743645) translate(0 14.222222222222223)"/><path d="M708.78 292.82H585v-2h123.78zm108.72 0h-75.24v-2h75.24zM584 296.45l-14.26-4.63 14.26-4.64z" fill="#5e5e5e"/><path d="M585 297.83l-18.5-6 18.5-6.03zm-12.03-6l10.03 3.24v-6.5zM818.5 292.82h-1.03v-2h1.03z" fill="#5e5e5e"/><use xlink:href="#j" transform="matrix(1,0,0,1,708.7751970567525,281.14941620466806) translate(0 14.222222222222223)"/><path d="M571.8 1191.15h-3.02v-2h3.03zm10.12 0h-6.07v-2h6.07zm10.1 0h-6.06v-2h6.07zm10.1 0h-6.05v-2h6.06zm10.12 0h-6.06v-2h6.06zm10.1 0h-6.05v-2h6.05zm10.12 0h-6.06v-2h6.06zm10.1 0h-6.06v-2h6.07zm10.12 0h-6.07v-2h6.08zm10.1 0h-6.06v-2h6.07zm10.1 0h-6.05v-2h6.06zm10.12 0h-6.06v-2H683zm10.1 0h-6.05v-2h6.06zm10.12 0h-6.06v-2h6.06zm7.92 0h-3.88v-2h3.88zm42.62 0h-6.06v-2h6.06zm10.1 0h-6.05v-2h6.07zm10.12 0h-6.06v-2h6.06zm10.1 0h-6.06v-2h6.07zm10.12 0h-6.07v-2h6.07zm7.07 0h-3.03v-2h3.03z" fill="#5e5e5e"/><path d="M568.8 1191.15h-1.02v-2h1.02zM816.54 1190.15l-14.27 4.64v-9.28z" fill="#5e5e5e"/><path d="M819.78 1190.15l-18.5 6.02v-12.03zm-16.5 3.26l10.02-3.25-10.03-3.25z" fill="#5e5e5e"/><use xlink:href="#i" transform="matrix(1,0,0,1,711.1423315327728,1179.4873180468178) translate(0 14.222222222222223)"/><path d="M589.3 1172.15h-3.02v-2h3.03zm10.12 0h-6.07v-2h6.07zm10.1 0h-6.06v-2h6.07zm10.12 0h-6.07v-2h6.07zm10.1 0h-6.06v-2h6.07zm10.1 0h-6.05v-2h6.05zm10.12 0h-6.06v-2h6.06zm10.1 0h-6.05v-2h6.07zm10.12 0h-6.07v-2h6.08zm10.1 0h-6.06v-2h6.07zm10.12 0h-6.07v-2h6.07zm10.1 0h-6.06v-2h6.07zm9.55 0h-5.5v-2h5.5zm41 0h-6.07v-2h6.07zm10.1 0h-6.06v-2h6.06zm10.12 0h-6.07v-2h6.07zm10.1 0h-6.06v-2h6.07zm10.1 0h-6.05v-2h6.06zm10.12 0h-6.07v-2h6.06zm10.1 0h-6.06v-2h6.06zm7.08 0h-3.04v-2h3.04zM585.28 1175.78l-14.27-4.63 14.28-4.64z" fill="#5e5e5e"/><path d="M586.28 1177.16l-18.5-6 18.5-6.02zm-12.03-6l10.03 3.25v-6.5zM819.78 1172.15h-1.03v-2h1.03z" fill="#5e5e5e"/><use xlink:href="#j" transform="matrix(1,0,0,1,710.0514431297098,1160.4829604939634) translate(0 14.222222222222223)"/><g><path d="M606 1220c-3.3 0-6-2.7-6-6v-48c0-3.3 2.7-6 6-6h18c3.3 0 6 2.7 6 6v48c0 3.3-2.7 6-6 6z" stroke="#5e5e5e" stroke-width="3" fill="#fff"/></g><g><use xlink:href="#l" transform="matrix(6.123233995736766e-17,-1,1,6.123233995736766e-17,605,1215) translate(-7.654320987654323 17.77777777777778)"/></g><path d="M665 1266c0-3.3 2.7-6 6-6h118c3.3 0 6 2.7 6 6v48c0 3.3-2.7 6-6 6H671c-3.3 0-6-2.7-6-6z" stroke="#000" stroke-opacity="0" stroke-width="3" fill="#fff" fill-opacity="0"/><g><use xlink:href="#F" transform="matrix(1,0,0,1,670,1265) translate(0 26.291666666666664)"/><use xlink:href="#G" transform="matrix(1,0,0,1,670,1265) translate(33.259259259259245 26.291666666666664)"/><use xlink:href="#H" transform="matrix(1,0,0,1,670,1265) translate(61.33333333333331 26.291666666666664)"/></g><defs><path fill="#333" d="M30-248c87 1 191-15 191 75 0 78-77 80-158 76V0H30v-248zm33 125c57 0 124 11 124-50 0-59-68-47-124-48v98" id="I"/><path fill="#333" d="M114-163C36-179 61-72 57 0H25l-1-190h30c1 12-1 29 2 39 6-27 23-49 58-41v29" id="J"/><path fill="#333" d="M100-194c62-1 85 37 85 99 1 63-27 99-86 99S16-35 15-95c0-66 28-99 85-99zM99-20c44 1 53-31 53-75 0-43-8-75-51-75s-53 32-53 75 10 74 51 75" id="K"/><path fill="#333" d="M177-190C167-65 218 103 67 71c-23-6-38-20-44-43l32-5c15 47 100 32 89-28v-30C133-14 115 1 83 1 29 1 15-40 15-95c0-56 16-97 71-98 29-1 48 16 59 35 1-10 0-23 2-32h30zM94-22c36 0 50-32 50-73 0-42-14-75-50-75-39 0-46 34-46 75s6 73 46 73" id="L"/><path fill="#333" d="M141-36C126-15 110 5 73 4 37 3 15-17 15-53c-1-64 63-63 125-63 3-35-9-54-41-54-24 1-41 7-42 31l-33-3c5-37 33-52 76-52 45 0 72 20 72 64v82c-1 20 7 32 28 27v20c-31 9-61-2-59-35zM48-53c0 20 12 33 32 33 41-3 63-29 60-74-43 2-92-5-92 41" id="M"/><path fill="#333" d="M210-169c-67 3-38 105-44 169h-31v-121c0-29-5-50-35-48C34-165 62-65 56 0H25l-1-190h30c1 10-1 24 2 32 10-44 99-50 107 0 11-21 27-35 58-36 85-2 47 119 55 194h-31v-121c0-29-5-49-35-48" id="N"/><path fill="#333" d="M100-194c63 0 86 42 84 106H49c0 40 14 67 53 68 26 1 43-12 49-29l28 8c-11 28-37 45-77 45C44 4 14-33 15-96c1-61 26-98 85-98zm52 81c6-60-76-77-97-28-3 7-6 17-6 28h103" id="O"/><g id="a"><use transform="matrix(0.06172839506172839,0,0,0.06172839506172839,0,0)" xlink:href="#I"/><use transform="matrix(0.06172839506172839,0,0,0.06172839506172839,14.814814814814813,0)" xlink:href="#J"/><use transform="matrix(0.06172839506172839,0,0,0.06172839506172839,22.160493827160494,0)" xlink:href="#K"/><use transform="matrix(0.06172839506172839,0,0,0.06172839506172839,34.50617283950617,0)" xlink:href="#L"/><use transform="matrix(0.06172839506172839,0,0,0.06172839506172839,46.85185185185185,0)" xlink:href="#J"/><use transform="matrix(0.06172839506172839,0,0,0.06172839506172839,54.197530864197525,0)" xlink:href="#M"/><use transform="matrix(0.06172839506172839,0,0,0.06172839506172839,66.5432098765432,0)" xlink:href="#N"/><use transform="matrix(0.06172839506172839,0,0,0.06172839506172839,84.99999999999999,0)" xlink:href="#N"/><use transform="matrix(0.06172839506172839,0,0,0.06172839506172839,103.45679012345677,0)" xlink:href="#O"/><use transform="matrix(0.06172839506172839,0,0,0.06172839506172839,115.80246913580245,0)" xlink:href="#J"/></g><path fill="#333" d="M232-93c-1 65-40 97-104 97C67 4 28-28 28-90v-158h33c8 89-33 224 67 224 102 0 64-133 71-224h33v155" id="P"/><path fill="#333" d="M185-189c-5-48-123-54-124 2 14 75 158 14 163 119 3 78-121 87-175 55-17-10-28-26-33-46l33-7c5 56 141 63 141-1 0-78-155-14-162-118-5-82 145-84 179-34 5 7 8 16 11 25" id="Q"/><path fill="#333" d="M160-131c35 5 61 23 61 61C221 17 115-2 30 0v-248c76 3 177-17 177 60 0 33-19 50-47 57zm-97-11c50-1 110 9 110-42 0-47-63-36-110-37v79zm0 115c55-2 124 14 124-45 0-56-70-42-124-44v89" id="R"/><g id="b"><use transform="matrix(0.06172839506172839,0,0,0.06172839506172839,0,0)" xlink:href="#P"/><use transform="matrix(0.06172839506172839,0,0,0.06172839506172839,15.987654320987653,0)" xlink:href="#Q"/><use transform="matrix(0.06172839506172839,0,0,0.06172839506172839,30.80246913580247,0)" xlink:href="#R"/></g><path fill="#333" d="M126-127c33 6 58 20 58 59 0 88-139 92-164 29-3-8-5-16-6-25l32-3c6 27 21 44 54 44 32 0 52-15 52-46 0-38-36-46-79-43v-28c39 1 72-4 72-42 0-27-17-43-46-43-28 0-47 15-49 41l-32-3c6-42 35-63 81-64 48-1 79 21 79 65 0 36-21 52-52 59" id="S"/><path fill="#333" d="M33 0v-38h34V0H33" id="T"/><g id="c"><use transform="matrix(0.06172839506172839,0,0,0.06172839506172839,0,0)" xlink:href="#S"/><use transform="matrix(0.06172839506172839,0,0,0.06172839506172839,12.345679012345679,0)" xlink:href="#T"/><use transform="matrix(0.06172839506172839,0,0,0.06172839506172839,18.51851851851852,0)" xlink:href="#S"/></g><path fill="#333" d="M212-179c-10-28-35-45-73-45-59 0-87 40-87 99 0 60 29 101 89 101 43 0 62-24 78-52l27 14C228-24 195 4 139 4 59 4 22-46 18-125c-6-104 99-153 187-111 19 9 31 26 39 46" id="U"/><path fill="#333" d="M197 0v-115H63V0H30v-248h33v105h134v-105h34V0h-34" id="V"/><path fill="#333" d="M155-56V0h-30v-56H8v-25l114-167h33v167h35v25h-35zm-30-156c-27 46-58 90-88 131h88v-131" id="W"/><path fill="#333" d="M101-251c68 0 85 55 85 127S166 4 100 4C33 4 14-52 14-124c0-73 17-127 87-127zm-1 229c47 0 54-49 54-102s-4-102-53-102c-51 0-55 48-55 102 0 53 5 102 54 102" id="X"/><g id="d"><use transform="matrix(0.06172839506172839,0,0,0.06172839506172839,0,0)" xlink:href="#U"/><use transform="matrix(0.06172839506172839,0,0,0.06172839506172839,15.987654320987653,0)" xlink:href="#V"/><use transform="matrix(0.06172839506172839,0,0,0.06172839506172839,31.975308641975307,0)" xlink:href="#S"/><use transform="matrix(0.06172839506172839,0,0,0.06172839506172839,44.32098765432099,0)" xlink:href="#W"/><use transform="matrix(0.06172839506172839,0,0,0.06172839506172839,56.666666666666664,0)" xlink:href="#X"/></g><path fill="#333" d="M85-194c31 0 48 13 60 33l-1-100h32l1 261h-30c-2-10 0-23-3-31C134-8 116 4 85 4 32 4 16-35 15-94c0-66 23-100 70-100zm9 24c-40 0-46 34-46 75 0 40 6 74 45 74 42 0 51-32 51-76 0-42-9-74-50-73" id="Y"/><g id="e"><use transform="matrix(0.06172839506172839,0,0,0.06172839506172839,0,0)" xlink:href="#R"/><use transform="matrix(0.06172839506172839,0,0,0.06172839506172839,14.814814814814813,0)" xlink:href="#K"/><use transform="matrix(0.06172839506172839,0,0,0.06172839506172839,27.160493827160494,0)" xlink:href="#M"/><use transform="matrix(0.06172839506172839,0,0,0.06172839506172839,39.50617283950617,0)" xlink:href="#J"/><use transform="matrix(0.06172839506172839,0,0,0.06172839506172839,46.85185185185185,0)" xlink:href="#Y"/></g><path fill="#333" d="M147 0H94L2-248h55l64 206c17-72 42-137 63-206h54" id="Z"/><path fill="#333" d="M25-224v-37h50v37H25zM25 0v-190h50V0H25" id="aa"/><path fill="#333" d="M135-194c87-1 58 113 63 194h-50c-7-57 23-157-34-157-59 0-34 97-39 157H25l-1-190h47c2 12-1 28 3 38 12-26 28-41 61-42" id="ab"/><g id="f"><use transform="matrix(0.04938271604938272,0,0,0.04938271604938272,0,0)" xlink:href="#Z"/><use transform="matrix(0.04938271604938272,0,0,0.04938271604938272,11.506172839506174,0)" xlink:href="#aa"/><use transform="matrix(0.04938271604938272,0,0,0.04938271604938272,16.444444444444446,0)" xlink:href="#ab"/></g><path fill="#333" d="M67-125c0 54 23 88 75 88 28 0 53-7 68-21v-34h-60v-39h108v91C232-14 192 4 140 4 58 4 20-42 15-125 8-236 126-280 215-234c19 10 29 26 37 47l-47 15c-11-23-29-39-63-39-53 1-75 33-75 86" id="ac"/><path fill="#333" d="M175 0L67-191c6 58 2 128 3 191H24v-248h59L193-55c-6-58-2-129-3-193h46V0h-61" id="ad"/><path fill="#333" d="M24-248c120-7 223 5 221 122C244-46 201 0 124 0H24v-248zM76-40c74 7 117-18 117-86 0-67-45-88-117-82v168" id="ae"/><g id="g"><use transform="matrix(0.04938271604938272,0,0,0.04938271604938272,0,0)" xlink:href="#ac"/><use transform="matrix(0.04938271604938272,0,0,0.04938271604938272,13.827160493827162,0)" xlink:href="#ad"/><use transform="matrix(0.04938271604938272,0,0,0.04938271604938272,26.617283950617285,0)" xlink:href="#ae"/></g><path fill="#333" d="M238-95c0 69-44 99-111 99C63 4 22-25 22-93v-155h51v151c-1 38 19 59 55 60 90 1 49-130 58-211h52v153" id="af"/><path fill="#333" d="M24-248c93 1 206-16 204 79-1 75-69 88-152 82V0H24v-248zm52 121c47 0 100 7 100-41 0-47-54-39-100-39v80" id="ag"/><path fill="#333" d="M24 0v-248h52V0H24" id="ah"/><g id="h"><use transform="matrix(0.04938271604938272,0,0,0.04938271604938272,0,0)" xlink:href="#af"/><use transform="matrix(0.04938271604938272,0,0,0.04938271604938272,12.790123456790125,0)" xlink:href="#ag"/><use transform="matrix(0.04938271604938272,0,0,0.04938271604938272,24.641975308641978,0)" xlink:href="#ae"/><use transform="matrix(0.04938271604938272,0,0,0.04938271604938272,37.4320987654321,0)" xlink:href="#ah"/></g><path fill="#333" d="M240-174c0 40-23 61-54 70L253 0h-59l-57-94H76V0H24v-248c93 4 217-23 216 74zM76-134c48-2 112 12 112-38 0-48-66-32-112-35v73" id="ai"/><path fill="#333" d="M144 0l-44-69L55 0H2l70-98-66-92h53l41 62 40-62h54l-67 91 71 99h-54" id="aj"/><g id="i"><use transform="matrix(0.04938271604938272,0,0,0.04938271604938272,0,0)" xlink:href="#ai"/><use transform="matrix(0.04938271604938272,0,0,0.04938271604938272,12.790123456790125,0)" xlink:href="#aj"/><use transform="matrix(0.04938271604938272,0,0,0.04938271604938272,22.66666666666667,0)" xlink:href="#ae"/></g><path fill="#333" d="M136-208V0H84v-208H4v-40h212v40h-80" id="ak"/><g id="j"><use transform="matrix(0.04938271604938272,0,0,0.04938271604938272,0,0)" xlink:href="#ak"/><use transform="matrix(0.04938271604938272,0,0,0.04938271604938272,10.814814814814815,0)" xlink:href="#aj"/><use transform="matrix(0.04938271604938272,0,0,0.04938271604938272,20.69135802469136,0)" xlink:href="#ae"/></g><path fill="#333" d="M240 0l2-218c-23 76-54 145-80 218h-23L58-218 59 0H30v-248h44l77 211c21-75 51-140 76-211h43V0h-30" id="al"/><g id="k"><use transform="matrix(0.06172839506172839,0,0,0.06172839506172839,0,0)" xlink:href="#al"/><use transform="matrix(0.06172839506172839,0,0,0.06172839506172839,18.456790123456788,0)" xlink:href="#U"/><use transform="matrix(0.06172839506172839,0,0,0.06172839506172839,34.44444444444444,0)" xlink:href="#P"/></g><path fill="#333" d="M206 0h-36l-40-164L89 0H53L-1-190h32L70-26l43-164h34l41 164 42-164h31" id="am"/><path fill="#333" d="M24-231v-30h32v30H24zM24 0v-190h32V0H24" id="an"/><path fill="#333" d="M59-47c-2 24 18 29 38 22v24C64 9 27 4 27-40v-127H5v-23h24l9-43h21v43h35v23H59v120" id="ao"/><path fill="#333" d="M96-169c-40 0-48 33-48 73s9 75 48 75c24 0 41-14 43-38l32 2c-6 37-31 61-74 61-59 0-76-41-82-99-10-93 101-131 147-64 4 7 5 14 7 22l-32 3c-4-21-16-35-41-35" id="ap"/><path fill="#333" d="M106-169C34-169 62-67 57 0H25v-261h32l-1 103c12-21 28-36 61-36 89 0 53 116 60 194h-32v-121c2-32-8-49-39-48" id="aq"/><g id="l"><use transform="matrix(0.06172839506172839,0,0,0.06172839506172839,0,0)" xlink:href="#Q"/><use transform="matrix(0.06172839506172839,0,0,0.06172839506172839,14.814814814814813,0)" xlink:href="#am"/><use transform="matrix(0.06172839506172839,0,0,0.06172839506172839,30.80246913580247,0)" xlink:href="#an"/><use transform="matrix(0.06172839506172839,0,0,0.06172839506172839,35.67901234567901,0)" xlink:href="#ao"/><use transform="matrix(0.06172839506172839,0,0,0.06172839506172839,41.851851851851855,0)" xlink:href="#ap"/><use transform="matrix(0.06172839506172839,0,0,0.06172839506172839,52.96296296296296,0)" xlink:href="#aq"/></g><path fill="#333" d="M85 4C-2 5 27-109 22-190h50c7 57-23 150 33 157 60-5 35-97 40-157h50l1 190h-47c-2-12 1-28-3-38-12 25-28 42-61 42" id="ar"/><path fill="#333" d="M137-138c1-29-70-34-71-4 15 46 118 7 119 86 1 83-164 76-172 9l43-7c4 19 20 25 44 25 33 8 57-30 24-41C81-84 22-81 20-136c-2-80 154-74 161-7" id="as"/><path fill="#333" d="M135-194c52 0 70 43 70 98 0 56-19 99-73 100-30 1-46-15-58-35L72 0H24l1-261h50v104c11-23 29-37 60-37zM114-30c31 0 40-27 40-66 0-37-7-63-39-63s-41 28-41 65c0 36 8 64 40 64" id="at"/><g id="m"><use transform="matrix(0.04938271604938272,0,0,0.04938271604938272,0,0)" xlink:href="#Z"/><use transform="matrix(0.04938271604938272,0,0,0.04938271604938272,11.209876543209878,0)" xlink:href="#ar"/><use transform="matrix(0.04938271604938272,0,0,0.04938271604938272,22.024691358024693,0)" xlink:href="#as"/><use transform="matrix(0.04938271604938272,0,0,0.04938271604938272,31.901234567901238,0)" xlink:href="#at"/></g><g id="n"><use transform="matrix(0.06172839506172839,0,0,0.06172839506172839,0,0)" xlink:href="#I"/><use transform="matrix(0.06172839506172839,0,0,0.06172839506172839,14.814814814814813,0)" xlink:href="#K"/><use transform="matrix(0.06172839506172839,0,0,0.06172839506172839,27.160493827160494,0)" xlink:href="#am"/><use transform="matrix(0.06172839506172839,0,0,0.06172839506172839,43.148148148148145,0)" xlink:href="#O"/><use transform="matrix(0.06172839506172839,0,0,0.06172839506172839,55.49382716049382,0)" xlink:href="#J"/></g><path fill="#333" d="M179-190L93 31C79 59 56 82 12 73V49c39 6 53-20 64-50L1-190h34L92-34l54-156h33" id="au"/><g id="o"><use transform="matrix(0.06172839506172839,0,0,0.06172839506172839,0,0)" xlink:href="#R"/><use transform="matrix(0.06172839506172839,0,0,0.06172839506172839,14.814814814814813,0)" xlink:href="#M"/><use transform="matrix(0.06172839506172839,0,0,0.06172839506172839,27.160493827160494,0)" xlink:href="#ao"/><use transform="matrix(0.06172839506172839,0,0,0.06172839506172839,33.333333333333336,0)" xlink:href="#ao"/><use transform="matrix(0.06172839506172839,0,0,0.06172839506172839,39.50617283950618,0)" xlink:href="#O"/><use transform="matrix(0.06172839506172839,0,0,0.06172839506172839,51.851851851851855,0)" xlink:href="#J"/><use transform="matrix(0.06172839506172839,0,0,0.06172839506172839,59.19753086419753,0)" xlink:href="#au"/></g><g id="p"><use transform="matrix(0.06172839506172839,0,0,0.06172839506172839,0,0)" xlink:href="#U"/><use transform="matrix(0.06172839506172839,0,0,0.06172839506172839,15.987654320987653,0)" xlink:href="#aq"/><use transform="matrix(0.06172839506172839,0,0,0.06172839506172839,28.333333333333332,0)" xlink:href="#M"/><use transform="matrix(0.06172839506172839,0,0,0.06172839506172839,40.67901234567901,0)" xlink:href="#J"/><use transform="matrix(0.06172839506172839,0,0,0.06172839506172839,48.02469135802469,0)" xlink:href="#L"/><use transform="matrix(0.06172839506172839,0,0,0.06172839506172839,60.37037037037037,0)" xlink:href="#O"/><use transform="matrix(0.06172839506172839,0,0,0.06172839506172839,72.71604938271605,0)" xlink:href="#J"/></g><path fill="#333" d="M127-220V0H93v-220H8v-28h204v28h-85" id="av"/><path fill="#333" d="M141 0L90-78 38 0H4l68-98-65-92h35l48 74 47-74h35l-64 92 68 98h-35" id="aw"/><path fill="#333" d="M30-248c118-7 216 8 213 122C240-48 200 0 122 0H30v-248zM63-27c89 8 146-16 146-99s-60-101-146-95v194" id="ax"/><g id="q"><use transform="matrix(0.030864197530864182,0,0,0.030864197530864182,0,0)" xlink:href="#av"/><use transform="matrix(0.030864197530864182,0,0,0.030864197530864182,6.759259259259256,0)" xlink:href="#aw"/><use transform="matrix(0.030864197530864182,0,0,0.030864197530864182,12.31481481481481,0)" xlink:href="#ax"/></g><path fill="#333" d="M233-177c-1 41-23 64-60 70L243 0h-38l-65-103H63V0H30v-248c88 3 205-21 203 71zM63-129c60-2 137 13 137-47 0-61-80-42-137-45v92" id="ay"/><g id="r"><use transform="matrix(0.030864197530864182,0,0,0.030864197530864182,0,0)" xlink:href="#ay"/><use transform="matrix(0.030864197530864182,0,0,0.030864197530864182,7.993827160493823,0)" xlink:href="#aw"/><use transform="matrix(0.030864197530864182,0,0,0.030864197530864182,13.549382716049376,0)" xlink:href="#ax"/></g><path fill="#333" d="M33 0v-248h34V0H33" id="az"/><g id="s"><use transform="matrix(0.030864197530864182,0,0,0.030864197530864182,0,0)" xlink:href="#P"/><use transform="matrix(0.030864197530864182,0,0,0.030864197530864182,7.993827160493823,0)" xlink:href="#I"/><use transform="matrix(0.030864197530864182,0,0,0.030864197530864182,15.401234567901227,0)" xlink:href="#ax"/><use transform="matrix(0.030864197530864182,0,0,0.030864197530864182,23.39506172839505,0)" xlink:href="#az"/></g><path fill="#333" d="M143 4C61 4 22-44 18-125c-5-107 100-154 193-111 17 8 29 25 37 43l-32 9c-13-25-37-40-76-40-61 0-88 39-88 99 0 61 29 100 91 101 35 0 62-11 79-27v-45h-74v-28h105v86C228-13 192 4 143 4" id="aA"/><path fill="#333" d="M190 0L58-211 59 0H30v-248h39L202-35l-2-213h31V0h-41" id="aB"/><g id="t"><use transform="matrix(0.030864197530864182,0,0,0.030864197530864182,0,0)" xlink:href="#aA"/><use transform="matrix(0.030864197530864182,0,0,0.030864197530864182,8.641975308641971,0)" xlink:href="#aB"/><use transform="matrix(0.030864197530864182,0,0,0.030864197530864182,16.635802469135793,0)" xlink:href="#ax"/></g><path fill="#333" d="M143 0L79-87 56-68V0H24v-261h32v163l83-92h37l-77 82L181 0h-38" id="aC"/><g id="u"><use transform="matrix(0.06172839506172839,0,0,0.06172839506172839,0,0)" xlink:href="#av"/><use transform="matrix(0.06172839506172839,0,0,0.06172839506172839,12.716049382716047,0)" xlink:href="#J"/><use transform="matrix(0.06172839506172839,0,0,0.06172839506172839,20.061728395061728,0)" xlink:href="#M"/><use transform="matrix(0.06172839506172839,0,0,0.06172839506172839,32.407407407407405,0)" xlink:href="#ap"/><use transform="matrix(0.06172839506172839,0,0,0.06172839506172839,43.51851851851852,0)" xlink:href="#aC"/></g><path fill="#333" d="M135-143c-3-34-86-38-87 0 15 53 115 12 119 90S17 21 10-45l28-5c4 36 97 45 98 0-10-56-113-15-118-90-4-57 82-63 122-42 12 7 21 19 24 35" id="aD"/><g id="v"><use transform="matrix(0.06172839506172839,0,0,0.06172839506172839,0,0)" xlink:href="#aD"/><use transform="matrix(0.06172839506172839,0,0,0.06172839506172839,11.11111111111111,0)" xlink:href="#am"/><use transform="matrix(0.06172839506172839,0,0,0.06172839506172839,27.098765432098766,0)" xlink:href="#an"/><use transform="matrix(0.06172839506172839,0,0,0.06172839506172839,31.975308641975307,0)" xlink:href="#ao"/><use transform="matrix(0.06172839506172839,0,0,0.06172839506172839,38.14814814814815,0)" xlink:href="#ap"/><use transform="matrix(0.06172839506172839,0,0,0.06172839506172839,49.25925925925927,0)" xlink:href="#aq"/></g><path fill="#333" d="M27 0v-27h64v-190l-56 39v-29l58-41h29v221h61V0H27" id="aE"/><path fill="#333" d="M101-251c82-7 93 87 43 132L82-64C71-53 59-42 53-27h129V0H18c2-99 128-94 128-182 0-28-16-43-45-43s-46 15-49 41l-32-3c6-41 34-60 81-64" id="aF"/><path fill="#333" d="M108 0H70L1-190h34L89-25l56-165h34" id="aG"/><path fill="#333" d="M16-127c37-31 93-2 135 6 18-1 32-8 43-16v26c-50 42-130-35-178 9v-25" id="aH"/><g id="w"><use transform="matrix(0.06172839506172839,0,0,0.06172839506172839,0,0)" xlink:href="#aE"/><use transform="matrix(0.06172839506172839,0,0,0.06172839506172839,12.345679012345679,0)" xlink:href="#aF"/><use transform="matrix(0.06172839506172839,0,0,0.06172839506172839,24.691358024691358,0)" xlink:href="#aG"/><use transform="matrix(0.06172839506172839,0,0,0.06172839506172839,35.80246913580247,0)" xlink:href="#aH"/></g><path fill="#333" d="M185-48c-13 30-37 53-82 52C43 2 14-33 14-96s30-98 90-98c62 0 83 45 84 108H66c0 31 8 55 39 56 18 0 30-7 34-22zm-45-69c5-46-57-63-70-21-2 6-4 13-4 21h74" id="aI"/><path fill="#333" d="M128 0H69L1-190h53L99-40l48-150h52" id="aJ"/><path fill="#333" d="M25 0v-261h50V0H25" id="aK"/><path fill="#333" d="M110-194c64 0 96 36 96 99 0 64-35 99-97 99-61 0-95-36-95-99 0-62 34-99 96-99zm-1 164c35 0 45-28 45-65 0-40-10-65-43-65-34 0-45 26-45 65 0 36 10 65 43 65" id="aL"/><path fill="#333" d="M135-194c53 0 70 44 70 98 0 56-19 98-73 100-31 1-45-17-59-34 3 33 2 69 2 105H25l-1-265h48c2 10 0 23 3 31 11-24 29-35 60-35zM114-30c33 0 39-31 40-66 0-38-9-64-40-64-56 0-55 130 0 130" id="aM"/><path fill="#333" d="M135-150c-39-12-60 13-60 57V0H25l-1-190h47c2 13-1 29 3 40 6-28 27-53 61-41v41" id="aN"/><g id="x"><use transform="matrix(0.06172839506172839,0,0,0.06172839506172839,0,0)" xlink:href="#ae"/><use transform="matrix(0.06172839506172839,0,0,0.06172839506172839,15.987654320987653,0)" xlink:href="#aI"/><use transform="matrix(0.06172839506172839,0,0,0.06172839506172839,28.333333333333332,0)" xlink:href="#aJ"/><use transform="matrix(0.06172839506172839,0,0,0.06172839506172839,40.67901234567901,0)" xlink:href="#aI"/><use transform="matrix(0.06172839506172839,0,0,0.06172839506172839,53.02469135802469,0)" xlink:href="#aK"/><use transform="matrix(0.06172839506172839,0,0,0.06172839506172839,59.19753086419753,0)" xlink:href="#aL"/><use transform="matrix(0.06172839506172839,0,0,0.06172839506172839,72.71604938271605,0)" xlink:href="#aM"/><use transform="matrix(0.06172839506172839,0,0,0.06172839506172839,86.23456790123457,0)" xlink:href="#aI"/><use transform="matrix(0.06172839506172839,0,0,0.06172839506172839,98.58024691358025,0)" xlink:href="#aN"/></g><path fill="#333" d="M182-130c37 4 62 22 62 59C244 23 116-4 24 0v-248c84 5 203-23 205 63 0 31-19 50-47 55zM76-148c40-3 101 13 101-30 0-44-60-28-101-31v61zm0 110c48-3 116 14 116-37 0-48-69-32-116-35v72" id="aO"/><path fill="#333" d="M133-34C117-15 103 5 69 4 32 3 11-16 11-54c-1-60 55-63 116-61 1-26-3-47-28-47-18 1-26 9-28 27l-52-2c7-38 36-58 82-57s74 22 75 68l1 82c-1 14 12 18 25 15v27c-30 8-71 5-69-32zm-48 3c29 0 43-24 42-57-32 0-66-3-65 30 0 17 8 27 23 27" id="aP"/><path fill="#333" d="M88-194c31-1 46 15 58 34l-1-101h50l1 261h-48c-2-10 0-23-3-31C134-8 116 4 84 4 32 4 16-41 15-95c0-56 19-97 73-99zm17 164c33 0 40-30 41-66 1-37-9-64-41-64s-38 30-39 65c0 43 13 65 39 65" id="aQ"/><g id="y"><use transform="matrix(0.06172839506172839,0,0,0.06172839506172839,0,0)" xlink:href="#aO"/><use transform="matrix(0.06172839506172839,0,0,0.06172839506172839,15.987654320987653,0)" xlink:href="#aL"/><use transform="matrix(0.06172839506172839,0,0,0.06172839506172839,29.50617283950617,0)" xlink:href="#aP"/><use transform="matrix(0.06172839506172839,0,0,0.06172839506172839,41.85185185185185,0)" xlink:href="#aN"/><use transform="matrix(0.06172839506172839,0,0,0.06172839506172839,50.49382716049382,0)" xlink:href="#aQ"/></g><path fill="#333" d="M115-3C79 11 28 4 28-45v-112H4v-33h27l15-45h31v45h36v33H77v99c-1 23 16 31 38 25v30" id="aR"/><path fill="#333" d="M123 10C108 53 80 86 19 72V37c35 8 53-11 59-39L3-190h52l48 148c12-52 28-100 44-148h51" id="aS"/><g id="z"><use transform="matrix(0.06172839506172839,0,0,0.06172839506172839,0,0)" xlink:href="#aO"/><use transform="matrix(0.06172839506172839,0,0,0.06172839506172839,15.987654320987653,0)" xlink:href="#aP"/><use transform="matrix(0.06172839506172839,0,0,0.06172839506172839,28.333333333333332,0)" xlink:href="#aR"/><use transform="matrix(0.06172839506172839,0,0,0.06172839506172839,35.67901234567901,0)" xlink:href="#aR"/><use transform="matrix(0.06172839506172839,0,0,0.06172839506172839,43.02469135802469,0)" xlink:href="#aI"/><use transform="matrix(0.06172839506172839,0,0,0.06172839506172839,55.37037037037037,0)" xlink:href="#aN"/><use transform="matrix(0.06172839506172839,0,0,0.06172839506172839,64.01234567901234,0)" xlink:href="#aS"/></g><g id="A"><use transform="matrix(0.06172839506172839,0,0,0.06172839506172839,0,0)" xlink:href="#aQ"/><use transform="matrix(0.06172839506172839,0,0,0.06172839506172839,13.518518518518517,0)" xlink:href="#aN"/><use transform="matrix(0.06172839506172839,0,0,0.06172839506172839,22.160493827160494,0)" xlink:href="#aa"/><use transform="matrix(0.06172839506172839,0,0,0.06172839506172839,28.333333333333332,0)" xlink:href="#aJ"/><use transform="matrix(0.06172839506172839,0,0,0.06172839506172839,40.67901234567901,0)" xlink:href="#aI"/><use transform="matrix(0.06172839506172839,0,0,0.06172839506172839,53.02469135802469,0)" xlink:href="#ab"/></g><g id="B"><use transform="matrix(0.06172839506172839,0,0,0.06172839506172839,0,0)" xlink:href="#ak"/><use transform="matrix(0.06172839506172839,0,0,0.06172839506172839,12.28395061728395,0)" xlink:href="#aN"/><use transform="matrix(0.06172839506172839,0,0,0.06172839506172839,20.925925925925924,0)" xlink:href="#aP"/><use transform="matrix(0.06172839506172839,0,0,0.06172839506172839,33.2716049382716,0)" xlink:href="#aa"/><use transform="matrix(0.06172839506172839,0,0,0.06172839506172839,39.44444444444444,0)" xlink:href="#ab"/></g><path fill="#333" d="M4 7l51-268h42L46 7H4" id="aT"/><use transform="matrix(0.06172839506172839,0,0,0.06172839506172839,0,0)" xlink:href="#aT" id="C"/><path fill="#333" d="M190-63c-7 42-38 67-86 67-59 0-84-38-90-98-12-110 154-137 174-36l-49 2c-2-19-15-32-35-32-30 0-35 28-38 64-6 74 65 87 74 30" id="aU"/><g id="D"><use transform="matrix(0.06172839506172839,0,0,0.06172839506172839,0,0)" xlink:href="#ag"/><use transform="matrix(0.06172839506172839,0,0,0.06172839506172839,14.814814814814813,0)" xlink:href="#aN"/><use transform="matrix(0.06172839506172839,0,0,0.06172839506172839,23.456790123456788,0)" xlink:href="#aL"/><use transform="matrix(0.06172839506172839,0,0,0.06172839506172839,36.9753086419753,0)" xlink:href="#aQ"/><use transform="matrix(0.06172839506172839,0,0,0.06172839506172839,50.49382716049382,0)" xlink:href="#ar"/><use transform="matrix(0.06172839506172839,0,0,0.06172839506172839,64.01234567901234,0)" xlink:href="#aU"/><use transform="matrix(0.06172839506172839,0,0,0.06172839506172839,76.35802469135803,0)" xlink:href="#aR"/><use transform="matrix(0.06172839506172839,0,0,0.06172839506172839,83.70370370370371,0)" xlink:href="#aa"/><use transform="matrix(0.06172839506172839,0,0,0.06172839506172839,89.87654320987654,0)" xlink:href="#aJ"/><use transform="matrix(0.06172839506172839,0,0,0.06172839506172839,102.22222222222223,0)" xlink:href="#aI"/></g><path fill="#333" d="M101-234c-31-9-42 10-38 44h38v23H63V0H32v-167H5v-23h27c-7-52 17-82 69-68v24" id="aV"/><g id="E"><use transform="matrix(0.06172839506172839,0,0,0.06172839506172839,0,0)" xlink:href="#ay"/><use transform="matrix(0.06172839506172839,0,0,0.06172839506172839,15.987654320987653,0)" xlink:href="#O"/><use transform="matrix(0.06172839506172839,0,0,0.06172839506172839,28.333333333333332,0)" xlink:href="#ap"/><use transform="matrix(0.06172839506172839,0,0,0.06172839506172839,39.44444444444444,0)" xlink:href="#ao"/><use transform="matrix(0.06172839506172839,0,0,0.06172839506172839,45.617283950617285,0)" xlink:href="#an"/><use transform="matrix(0.06172839506172839,0,0,0.06172839506172839,50.49382716049383,0)" xlink:href="#aV"/><use transform="matrix(0.06172839506172839,0,0,0.06172839506172839,56.66666666666667,0)" xlink:href="#an"/><use transform="matrix(0.06172839506172839,0,0,0.06172839506172839,61.543209876543216,0)" xlink:href="#O"/><use transform="matrix(0.06172839506172839,0,0,0.06172839506172839,73.8888888888889,0)" xlink:href="#J"/></g><path fill="#333" d="M68-38c1 34 0 65-14 84H32c9-13 17-26 17-46H33v-38h35" id="aW"/><g id="F"><use transform="matrix(0.03703703703703702,0,0,0.03703703703703702,0,0)" xlink:href="#ay"/><use transform="matrix(0.03703703703703702,0,0,0.03703703703703702,9.592592592592588,0)" xlink:href="#aw"/><use transform="matrix(0.03703703703703702,0,0,0.03703703703703702,16.259259259259252,0)" xlink:href="#ax"/><use transform="matrix(0.03703703703703702,0,0,0.03703703703703702,25.85185185185184,0)" xlink:href="#aW"/></g><g id="G"><use transform="matrix(0.03703703703703702,0,0,0.03703703703703702,0,0)" xlink:href="#av"/><use transform="matrix(0.03703703703703702,0,0,0.03703703703703702,8.111111111111107,0)" xlink:href="#aw"/><use transform="matrix(0.03703703703703702,0,0,0.03703703703703702,14.777777777777771,0)" xlink:href="#ax"/></g><path fill="#333" d="M115-194c55 1 70 41 70 98S169 2 115 4C84 4 66-9 55-30l1 105H24l-1-265h31l2 30c10-21 28-34 59-34zm-8 174c40 0 45-34 45-75s-6-73-45-74c-42 0-51 32-51 76 0 43 10 73 51 73" id="aX"/><path fill="#333" d="M117-194c89-4 53 116 60 194h-32v-121c0-31-8-49-39-48C34-167 62-67 57 0H25l-1-190h30c1 10-1 24 2 32 11-22 29-35 61-36" id="aY"/><path fill="#333" d="M24 0v-261h32V0H24" id="aZ"/><g id="H"><use transform="matrix(0.03703703703703702,0,0,0.03703703703703702,0,0)" xlink:href="#K"/><use transform="matrix(0.03703703703703702,0,0,0.03703703703703702,7.407407407407404,0)" xlink:href="#aX"/><use transform="matrix(0.03703703703703702,0,0,0.03703703703703702,14.814814814814808,0)" xlink:href="#ao"/><use transform="matrix(0.03703703703703702,0,0,0.03703703703703702,18.51851851851851,0)" xlink:href="#an"/><use transform="matrix(0.03703703703703702,0,0,0.03703703703703702,21.444444444444432,0)" xlink:href="#K"/><use transform="matrix(0.03703703703703702,0,0,0.03703703703703702,28.851851851851837,0)" xlink:href="#aY"/><use transform="matrix(0.03703703703703702,0,0,0.03703703703703702,36.25925925925924,0)" xlink:href="#M"/><use transform="matrix(0.03703703703703702,0,0,0.03703703703703702,43.66666666666664,0)" xlink:href="#aZ"/></g></defs></g></svg>